<svg width="156" height="31" viewBox="0 0 156 31" fill="none" xmlns="http://www.w3.org/2000/svg">
<path d="M70.5976 15.8485C70.5976 21.74 67.0063 24.5253 62.5112 24.5253H59.7641V20.9902H62.2972C65.0085 20.9902 66.8159 19.5264 66.8159 15.8485C66.8159 12.2063 65.1066 10.3849 62.2168 10.3849C59.4341 10.3849 57.4451 12.0991 57.4451 15.7771V30.5602H53.6991V7.314H57.4451V9.31391H57.9803C59.229 7.63566 61.0751 6.88551 63.0016 6.88551C67.1401 6.88551 70.5976 9.885 70.5976 15.8485ZM45.9784 14.3128L43.481 14.0628C41.5188 13.8843 40.4842 13.3487 40.4842 12.206C40.4842 10.8491 41.8043 10.0636 43.695 10.0636C45.6573 10.0636 46.9059 10.9919 47.0129 12.3131H50.6163C50.4736 8.95662 47.8693 6.88551 43.7308 6.88551C39.5567 6.88551 36.7382 9.09943 36.7382 12.3489C36.7382 15.0627 38.4506 16.8123 42.3394 17.2052L44.8723 17.4551C46.4065 17.5979 47.4412 17.9192 47.4412 19.3833C47.4412 20.7046 46.4778 21.6686 43.9449 21.6686C41.6123 21.6686 40.463 20.6092 40.0597 19.1892H36.1614C36.5498 22.4352 39.2743 24.9537 43.9449 24.9537C48.333 24.9537 51.187 22.6327 51.187 19.2049C51.187 16.1696 49.1893 14.6342 45.9784 14.3128ZM85.1059 19.1892C84.5182 20.54 83.1141 21.5616 81.1215 21.5616C78.3745 21.5616 76.341 19.7761 76.341 15.9197C76.341 12.2417 78.2317 10.2064 81.1571 10.2064C83.7616 10.2064 85.26 11.7776 85.4028 14.1342H78.6598V16.8483H89.0774V15.0627C89.0774 10.0993 85.7951 6.88551 81.1215 6.88551C76.7691 6.88551 72.5948 9.84932 72.5948 15.9197C72.5948 21.9899 76.7691 24.9537 81.1215 24.9537C85.1026 24.9537 87.9413 22.4993 88.8233 19.1892H85.1059ZM26.0532 6.88551C21.9505 6.88551 18.8823 9.02827 18.5256 12.3131H22.5569C22.8424 11.0993 23.9483 10.2066 26.0532 10.2066C28.7647 10.2066 29.6566 11.6352 29.6566 13.3846V19.2762C28.1226 21.0261 26.3387 21.8472 24.5548 21.8472C22.6997 21.8472 21.4154 20.9545 21.4154 19.348C21.4154 17.8121 22.4142 16.8483 24.3408 16.8483H27.3376V14.1342H24.2337C19.9526 14.1342 17.5623 16.277 17.5623 19.5619C17.5623 22.6327 19.8812 24.9537 23.6986 24.9537C25.8392 24.9537 27.7301 24.0971 29.1214 23.0612H29.6566V24.5253H33.4026V13.0273C33.4026 8.77806 30.5128 6.88551 26.0532 6.88551ZM0.636536 24.5253H4.38258V0.958008H0.636536V24.5253ZM16.3698 7.314H11.8032L6.34477 14.4916V16.7412L11.9459 24.5253H16.5838L10.0195 15.5983L16.3698 7.314ZM151.789 7.314L148.721 14.1342C147.971 15.7771 147.258 17.3836 147.044 18.4552H146.509C146.294 17.3836 145.546 15.8126 144.796 14.1702L141.728 7.314H137.59L144.796 22.7756L141.229 30.5602H145.224L155.927 7.314H151.789ZM136.761 7.314H132.195L126.736 14.4916V16.7412L132.337 24.5253H136.975L130.411 15.5983L136.761 7.314ZM113.307 14.3128L110.81 14.0628C108.847 13.8843 107.813 13.3487 107.813 12.206C107.813 10.8491 109.133 10.0636 111.024 10.0636C112.986 10.0636 114.235 10.9919 114.342 12.3131H117.945C117.802 8.95662 115.198 6.88551 111.059 6.88551C106.885 6.88551 104.067 9.09943 104.067 12.3489C104.067 15.0627 105.779 16.8123 109.668 17.2052L112.201 17.4551C113.735 17.5979 114.77 17.9192 114.77 19.3833C114.77 20.7046 113.807 21.6686 111.273 21.6686C108.941 21.6686 107.792 20.6092 107.388 19.1892H103.49C103.878 22.4352 106.603 24.9537 111.273 24.9537C115.662 24.9537 118.516 22.6327 118.516 19.2049C118.516 16.1696 116.518 14.6342 113.307 14.3128ZM121.028 24.5253H124.774V0.958008H121.028V24.5253ZM96.3255 9.31391H95.7904V7.314H92.0444V24.5253H95.7904V15.5268C95.7904 12.456 97.2081 10.6706 100 10.6706H102.372V6.88551H100.999C98.4084 6.88551 97.3074 7.86349 96.3255 9.31391Z" fill="white"/>
</svg>
