<svg width="158" height="32" viewBox="0 0 158 32" fill="none" xmlns="http://www.w3.org/2000/svg">
<path d="M11.4408 6.84878L5.92133 14.4745V16.8648L11.5859 25.1352H16.2757L9.63743 15.6501L16.0602 6.84878H11.4408ZM0.147339 25.1352H3.93601V0.0952148H0.147339V25.1352Z" fill="white"/>
<path d="M17.2148 19.8615C17.2148 16.3716 19.6323 14.0951 23.9625 14.0951H27.1013V16.9783H24.0698C22.1224 16.9783 21.1118 18.0034 21.1118 19.634C21.1118 21.3417 22.4105 22.2897 24.2864 22.2897C26.0908 22.2897 27.8953 21.4163 29.4473 19.557V13.3734C29.4473 11.5141 28.544 9.99722 25.8027 9.99722C23.6733 9.99722 22.5556 10.8694 22.2664 12.1599H18.1885C18.5503 8.6688 21.6523 6.39233 25.8027 6.39233C30.3127 6.39233 33.236 8.40335 33.236 12.9184V25.135H29.4473V23.5791H28.9058C27.4978 24.6799 25.5861 25.5901 23.421 25.5901C19.5597 25.5901 17.2148 23.124 17.2148 19.8615Z" fill="white"/>
<path d="M35.8688 19.4443H39.8015C40.1622 21.0381 41.3536 22.0999 43.7353 22.0999C46.2968 22.0999 47.2705 21.076 47.2705 19.6718C47.2705 18.117 46.2243 17.7757 44.6722 17.6228L42.1107 17.3585C38.1779 16.9403 36.4461 15.0809 36.4461 12.1989C36.4461 8.74565 39.2968 6.39334 43.5176 6.39334C47.7027 6.39334 50.3379 8.59397 50.4819 12.1598H46.8373C46.729 10.7567 45.4661 9.76955 43.4819 9.76955C41.5691 9.76955 40.2347 10.6038 40.2347 12.046C40.2347 13.2595 41.281 13.8295 43.2652 14.0191L45.791 14.2846C49.0381 14.6259 51.0592 16.2577 51.0592 19.4822C51.0592 23.1238 48.1728 25.5899 43.7353 25.5899C39.0076 25.5899 36.1211 22.8963 35.8688 19.4443Z" fill="white"/>
<path d="M53.5482 6.84841H57.3368V8.97319H57.8784C59.1402 7.1897 61.1612 6.39334 63.1097 6.39334C67.2948 6.39334 71.0477 9.57994 71.0477 15.9164C71.0477 22.1769 67.0067 25.1349 62.4599 25.1349H59.6817V21.3794H62.2443C64.9857 21.3794 67.2233 19.8235 67.2233 15.9164C67.2233 12.046 65.238 10.112 62.3158 10.112C59.5019 10.112 57.3368 11.9323 57.3368 15.8405V31.5471H53.5482V6.84841Z" fill="white"/>
<path d="M73.1415 15.9922C73.1415 9.54317 77.3634 6.39334 81.7651 6.39334C86.4917 6.39334 89.8114 9.80747 89.8114 15.0821V17.054H79.2751V14.1708H86.0942C85.9513 11.591 84.436 9.92239 81.8008 9.92239C78.8418 9.92239 76.9302 12.0851 76.9302 15.9922C76.9302 20.0901 78.987 21.9873 81.7651 21.9873C83.7851 21.9873 85.2646 20.9244 85.8061 19.4443H89.5591C88.8366 22.9733 85.8061 25.5911 81.7651 25.5911C77.3634 25.5911 73.1415 22.4412 73.1415 15.9922Z" fill="white"/>
<path d="M92.4444 6.8484H96.2331V8.97318H96.8461C97.5317 7.60684 98.9386 6.39334 101.501 6.39334H102.872V10.4154H100.491C97.5674 10.4154 96.2331 12.3115 96.2331 15.5739V25.1348H92.4444V6.8484Z" fill="white"/>
<path d="M104.027 19.4443H107.96C108.32 21.0381 109.512 22.0999 111.893 22.0999C114.455 22.0999 115.429 21.076 115.429 19.6718C115.429 18.117 114.383 17.7757 112.831 17.6228L110.269 17.3585C106.336 16.9403 104.604 15.0809 104.604 12.1989C104.604 8.74565 107.455 6.39334 111.676 6.39334C115.862 6.39334 118.496 8.59397 118.64 12.1598H114.996C114.887 10.7567 113.624 9.76955 111.64 9.76955C109.727 9.76955 108.393 10.6038 108.393 12.046C108.393 13.2595 109.439 13.8295 111.425 14.0191L113.949 14.2846C117.196 14.6259 119.218 16.2577 119.218 19.4822C119.218 23.1238 116.331 25.5899 111.893 25.5899C107.165 25.5899 104.278 22.8963 104.027 19.4443Z" fill="white"/>
<path d="M132.893 6.84853L127.372 14.4743V16.8645L133.037 25.135H137.727L131.088 15.6499L137.51 6.84853H132.893ZM121.599 25.135H125.387V0.0949707H121.599V25.135Z" fill="white"/>
<path d="M146.025 23.2756L138.736 6.84735H142.922L146.025 14.1318C146.782 15.8774 147.505 17.5471 147.72 18.6859H148.334C148.551 17.5471 149.237 15.8395 149.994 14.0939L153.097 6.84735H157.283L146.458 31.5472H142.417L146.025 23.2756Z" fill="white"/>
</svg>
