<svg width="157" height="224" viewBox="0 0 157 224" fill="none" xmlns="http://www.w3.org/2000/svg">
<path d="M101.032 127.161C101.605 127.3 102.183 126.948 102.322 126.376C102.461 125.803 102.108 125.226 101.535 125.087C100.962 124.948 100.384 125.299 100.245 125.872C100.106 126.444 100.458 127.021 101.032 127.161Z" fill="url(#paint0_linear_1239_1312)"/>
<path d="M98.3513 141.175C98.9247 141.314 99.5022 140.963 99.6412 140.391C99.7802 139.818 99.428 139.241 98.8546 139.102C98.2812 138.963 97.7037 139.314 97.5647 139.886C97.4257 140.459 97.7779 141.036 98.3513 141.175Z" fill="url(#paint1_linear_1239_1312)"/>
<path d="M108.503 140.725C109.076 140.865 109.654 140.513 109.793 139.941C109.932 139.368 109.579 138.791 109.006 138.652C108.433 138.513 107.855 138.864 107.716 139.437C107.577 140.009 107.929 140.586 108.503 140.725Z" fill="url(#paint2_linear_1239_1312)"/>
<path d="M107.542 129.179C108.229 129.346 108.921 128.925 109.088 128.239C109.255 127.553 108.833 126.861 108.145 126.694C107.458 126.527 106.766 126.948 106.599 127.635C106.433 128.321 106.855 129.013 107.542 129.179Z" fill="url(#paint3_linear_1239_1312)"/>
<path d="M104.253 128.17C104.646 128.265 105.042 128.025 105.137 127.632C105.232 127.24 104.991 126.845 104.598 126.749C104.205 126.654 103.81 126.895 103.714 127.287C103.619 127.679 103.86 128.075 104.253 128.17Z" fill="url(#paint4_linear_1239_1312)"/>
<path d="M109.503 136.612C109.896 136.708 110.291 136.467 110.387 136.075C110.482 135.683 110.24 135.287 109.848 135.192C109.455 135.097 109.059 135.337 108.964 135.729C108.869 136.122 109.11 136.517 109.503 136.612Z" fill="url(#paint5_linear_1239_1312)"/>
<path d="M95.6291 136.629C96.0219 136.724 96.4175 136.484 96.5128 136.092C96.608 135.699 96.3667 135.304 95.9739 135.209C95.5811 135.113 95.1855 135.354 95.0903 135.746C94.9951 136.138 95.2363 136.534 95.6291 136.629Z" fill="url(#paint6_linear_1239_1312)"/>
<path d="M95.8134 131.472C96.6972 131.687 97.5873 131.145 97.8015 130.262C98.0157 129.38 97.473 128.491 96.5892 128.276C95.7054 128.062 94.8153 128.603 94.6011 129.486C94.3869 130.368 94.9296 131.257 95.8134 131.472Z" fill="url(#paint7_linear_1239_1312)"/>
<path d="M103.06 143.635C103.944 143.849 104.834 143.308 105.048 142.425C105.262 141.543 104.72 140.653 103.836 140.439C102.952 140.224 102.062 140.766 101.848 141.648C101.633 142.531 102.176 143.42 103.06 143.635Z" fill="url(#paint8_linear_1239_1312)"/>
<path d="M111.312 134.2C112.196 134.415 113.086 133.873 113.3 132.99C113.514 132.108 112.972 131.219 112.088 131.004C111.204 130.79 110.314 131.331 110.1 132.214C109.886 133.096 110.428 133.985 111.312 134.2Z" fill="url(#paint9_linear_1239_1312)"/>
<path d="M111.587 132.335C111.329 132.515 110.985 132.655 110.682 132.75C110.226 132.89 109.739 132.967 109.26 132.991C109.156 132.995 108.85 133.012 108.356 133.022C108.074 131.948 107.449 130.986 106.575 130.291C106.605 130.209 106.635 130.128 106.665 130.047C106.738 129.858 106.815 129.672 106.896 129.488C107.126 128.983 107.543 128.368 108.015 128.113L107.434 127.703C107.417 127.811 107.386 127.91 107.351 128.005C107.315 128.1 107.274 128.191 107.229 128.28C107.137 128.456 107.029 128.62 106.909 128.775C106.788 128.931 106.655 129.077 106.511 129.216C106.365 129.353 106.215 129.489 106.06 129.62C105.988 129.681 105.915 129.743 105.84 129.802C105.332 129.524 104.781 129.335 104.214 129.239C104.289 128.705 104.419 127.994 104.682 127.522L104.169 127.397C104.186 127.954 103.965 128.665 103.781 129.185C103.278 129.143 102.781 129.176 102.303 129.276C102.002 128.397 101.552 127.129 101.634 126.181L100.937 126.321C101.382 127.168 101.457 128.526 101.522 129.505C100.589 129.86 99.7699 130.48 99.1767 131.298C98.3072 130.899 97.4242 130.479 96.7607 129.775C96.6656 129.674 96.5736 129.567 96.4925 129.445L95.9102 130.302C96.0533 130.332 96.1859 130.378 96.3153 130.43C97.2317 130.793 97.9686 131.485 98.6711 132.16C98.2592 133.054 98.0961 134.084 98.2562 135.113C97.6204 135.377 97.0729 135.593 96.4318 135.664C96.2247 135.686 95.9584 135.696 95.7549 135.658L95.8466 136.178C95.9402 136.123 96.0577 136.074 96.1599 136.038C96.8774 135.78 97.653 135.804 98.4246 135.841C98.6691 136.631 99.1007 137.352 99.6802 137.942C99.4706 138.417 99.063 139.39 98.4177 139.769L98.9955 140.184C99.0704 139.829 99.3306 139.432 99.5715 139.151C99.7351 138.958 100.104 138.612 100.272 138.458C101.101 139.077 102.077 139.413 103.049 139.474C103.138 139.953 103.181 140.438 103.144 140.928C103.109 141.386 102.983 141.963 102.762 142.315L103.797 142.365C103.61 141.991 103.538 141.405 103.547 140.948C103.556 140.441 103.649 139.946 103.79 139.466C104.834 139.38 105.817 138.977 106.613 138.332C107.045 138.609 107.96 139.19 108.476 139.758L108.943 139.222C108.376 138.835 107.72 138.096 107.324 137.635C107.804 137.061 108.167 136.374 108.364 135.603C108.751 135.71 109.274 135.905 109.593 136.152L109.758 135.651C109.349 135.66 108.801 135.501 108.421 135.353C108.532 134.811 108.552 134.271 108.493 133.747C108.946 133.602 109.228 133.522 109.343 133.488C110.062 133.282 111.047 133.152 111.758 133.356L111.587 132.335Z" fill="url(#paint10_linear_1239_1312)"/>
<path d="M25.8205 177.117C26.7458 177.341 27.6779 176.774 27.9022 175.85C28.1265 174.926 27.5582 173.995 26.6328 173.77C25.7074 173.546 24.7754 174.113 24.5511 175.037C24.3268 175.961 24.8951 176.892 25.8205 177.117Z" fill="url(#paint11_linear_1239_1312)"/>
<path d="M21.4945 199.734C22.4199 199.959 23.3519 199.392 23.5763 198.468C23.8006 197.544 23.2323 196.613 22.3069 196.388C21.3815 196.163 20.4495 196.73 20.2252 197.654C20.0009 198.579 20.5692 199.51 21.4945 199.734Z" fill="url(#paint12_linear_1239_1312)"/>
<path d="M37.8769 199.008C38.8022 199.233 39.7343 198.666 39.9586 197.742C40.1829 196.817 39.6146 195.886 38.6892 195.662C37.7638 195.437 36.8318 196.004 36.6075 196.928C36.3832 197.852 36.9515 198.783 37.8769 199.008Z" fill="url(#paint13_linear_1239_1312)"/>
<path d="M36.3268 180.375C37.4361 180.644 38.5533 179.964 38.8223 178.856C39.0912 177.749 38.4099 176.632 37.3006 176.363C36.1913 176.094 35.074 176.774 34.8051 177.881C34.5362 178.989 35.2174 180.105 36.3268 180.375Z" fill="url(#paint14_linear_1239_1312)"/>
<path d="M31.02 178.745C31.6538 178.899 32.2923 178.511 32.4459 177.878C32.5996 177.245 32.2103 176.607 31.5764 176.453C30.9426 176.299 30.3041 176.688 30.1505 177.321C29.9968 177.954 30.3861 178.592 31.02 178.745Z" fill="url(#paint15_linear_1239_1312)"/>
<path d="M39.4923 192.37C40.1264 192.524 40.765 192.136 40.9187 191.503C41.0724 190.869 40.683 190.231 40.0489 190.077C39.4149 189.924 38.7763 190.312 38.6226 190.945C38.4689 191.578 38.8583 192.216 39.4923 192.37Z" fill="url(#paint16_linear_1239_1312)"/>
<path d="M17.1013 192.397C17.7351 192.551 18.3736 192.162 18.5272 191.529C18.6809 190.896 18.2916 190.258 17.6577 190.104C17.0239 189.951 16.3854 190.339 16.2318 190.972C16.0781 191.605 16.4674 192.243 17.1013 192.397Z" fill="url(#paint17_linear_1239_1312)"/>
<path d="M17.3998 184.074C18.8262 184.421 20.2627 183.547 20.6085 182.122C20.9543 180.698 20.0783 179.262 18.652 178.916C17.2256 178.57 15.789 179.444 15.4433 180.868C15.0975 182.293 15.9735 183.728 17.3998 184.074Z" fill="url(#paint18_linear_1239_1312)"/>
<path d="M29.0942 203.704C30.5205 204.05 31.9571 203.176 32.3029 201.751C32.6486 200.327 31.7726 198.892 30.3463 198.545C28.92 198.199 27.4834 199.073 27.1376 200.498C26.7918 201.922 27.6678 203.357 29.0942 203.704Z" fill="url(#paint19_linear_1239_1312)"/>
<path d="M42.412 188.477C43.8384 188.824 45.275 187.95 45.6207 186.525C45.9665 185.101 45.0905 183.666 43.6642 183.319C42.2378 182.973 40.8012 183.847 40.4555 185.271C40.1097 186.696 40.9857 188.131 42.412 188.477Z" fill="url(#paint20_linear_1239_1312)"/>
<path d="M42.8554 185.467C42.4382 185.758 41.8839 185.984 41.3944 186.137C40.6588 186.364 39.8722 186.488 39.1002 186.527C38.9323 186.533 38.4382 186.56 37.6419 186.575C37.1856 184.842 36.1767 183.29 34.7676 182.168C34.8144 182.036 34.8628 181.905 34.9128 181.775C35.0295 181.469 35.1543 181.169 35.2853 180.873C35.6557 180.057 36.3291 179.065 37.0917 178.654L36.1534 177.991C36.1263 178.166 36.0761 178.325 36.0192 178.479C35.9619 178.633 35.895 178.78 35.8221 178.922C35.6747 179.207 35.5005 179.472 35.306 179.722C35.1114 179.973 34.8961 180.209 34.6629 180.433C34.4275 180.656 34.1861 180.873 33.9366 181.086C33.8199 181.185 33.7016 181.283 33.5817 181.38C32.761 180.931 31.8717 180.627 30.9567 180.472C31.078 179.609 31.2884 178.462 31.7131 177.7L30.8835 177.499C30.9121 178.398 30.5541 179.544 30.2584 180.384C29.4461 180.316 28.6439 180.369 27.8727 180.53C27.3877 179.112 26.6612 177.065 26.7945 175.536L25.6686 175.761C26.387 177.129 26.5082 179.32 26.6125 180.9C25.1079 181.473 23.7848 182.475 22.8279 183.793C21.4246 183.15 19.9998 182.472 18.9289 181.336C18.7752 181.172 18.627 181.001 18.4961 180.804L17.5561 182.186C17.7877 182.235 18.0013 182.31 18.2102 182.392C19.6892 182.979 20.8787 184.095 22.0118 185.186C21.3472 186.627 21.0839 188.291 21.3426 189.951C20.3159 190.377 19.4327 190.726 18.398 190.84C18.0639 190.875 17.6341 190.891 17.3056 190.831L17.4538 191.67C17.6048 191.582 17.7943 191.503 17.9592 191.444C19.1174 191.028 20.3691 191.066 21.614 191.126C22.0087 192.401 22.7052 193.566 23.6408 194.517C23.3025 195.284 22.6449 196.853 21.6032 197.465L22.5355 198.135C22.6562 197.562 23.0757 196.921 23.4649 196.468C23.7287 196.156 24.3247 195.598 24.5949 195.349C25.9333 196.348 27.5088 196.891 29.0757 196.989C29.221 197.762 29.2897 198.545 29.2303 199.336C29.174 200.075 28.9697 201.006 28.6132 201.575L30.2843 201.654C29.9815 201.052 29.8667 200.106 29.8797 199.367C29.8951 198.55 30.0452 197.752 30.2729 196.977C31.9571 196.837 33.543 196.187 34.829 195.147C35.5263 195.594 37.0022 196.532 37.8356 197.448L38.589 196.583C37.6732 195.959 36.6152 194.766 35.9751 194.021C36.7508 193.096 37.3356 191.988 37.6534 190.742C38.2788 190.915 39.1215 191.23 39.6363 191.629L39.9035 190.82C39.2439 190.834 38.3587 190.578 37.7459 190.339C37.9239 189.465 37.9574 188.592 37.8615 187.747C38.5924 187.513 39.0478 187.384 39.2341 187.328C40.3941 186.997 41.9836 186.787 43.1308 187.116L42.8554 185.467Z" fill="url(#paint21_linear_1239_1312)"/>
<path d="M103.58 75.0892C104.982 75.4296 106.394 74.5705 106.734 73.1704C107.074 71.7704 106.213 70.3595 104.811 70.0192C103.409 69.6789 101.997 70.5379 101.657 71.938C101.317 73.338 102.178 74.7489 103.58 75.0892Z" fill="url(#paint22_linear_1239_1312)"/>
<path d="M123.211 103.965C124.613 104.305 126.025 103.446 126.365 102.046C126.705 100.646 125.844 99.2353 124.442 98.895C123.04 98.5546 121.628 99.4137 121.288 100.814C120.948 102.214 121.809 103.625 123.211 103.965Z" fill="url(#paint23_linear_1239_1312)"/>
<path d="M139.971 85.657C141.373 85.9974 142.785 85.1383 143.125 83.7383C143.464 82.3382 142.603 80.9273 141.201 80.587C139.799 80.2467 138.387 81.1057 138.047 82.5058C137.708 83.9058 138.569 85.3167 139.971 85.657Z" fill="url(#paint24_linear_1239_1312)"/>
<path d="M117.932 67.4017C119.612 67.8097 121.305 66.7799 121.713 65.1015C122.12 63.423 121.088 61.7317 119.407 61.3237C117.726 60.9157 116.033 61.9455 115.626 63.6239C115.219 65.3024 116.251 66.9937 117.932 67.4017Z" fill="url(#paint25_linear_1239_1312)"/>
<path d="M111.517 71.1761C112.477 71.4093 113.444 70.8207 113.677 69.8616C113.91 68.9024 113.32 67.9358 112.36 67.7026C111.399 67.4695 110.432 68.058 110.199 69.0172C109.966 69.9764 110.556 70.943 111.517 71.1761Z" fill="url(#paint26_linear_1239_1312)"/>
<path d="M135.202 76.7168C136.163 76.9499 137.13 76.3614 137.363 75.4022C137.596 74.443 137.006 73.4765 136.045 73.2433C135.085 73.0101 134.117 73.5987 133.885 74.5579C133.652 75.517 134.242 76.4836 135.202 76.7168Z" fill="url(#paint27_linear_1239_1312)"/>
<path d="M111.258 100.703C112.219 100.937 113.186 100.348 113.419 99.3888C113.652 98.4296 113.062 97.463 112.101 97.2299C111.141 96.9967 110.173 97.5852 109.94 98.5444C109.708 99.5036 110.298 100.47 111.258 100.703Z" fill="url(#paint28_linear_1239_1312)"/>
<path d="M100.959 91.7249C103.12 92.2495 105.296 90.9253 105.82 88.7672C106.344 86.6091 105.017 84.4343 102.856 83.9097C100.695 83.3851 98.5182 84.7093 97.9943 86.8674C97.4704 89.0255 98.7977 91.2003 100.959 91.7249Z" fill="url(#paint29_linear_1239_1312)"/>
<path d="M134.535 100.255C136.695 100.779 138.872 99.4551 139.396 97.2971C139.92 95.1392 138.592 92.9647 136.431 92.4401C134.271 91.9155 132.094 93.2396 131.57 95.3975C131.046 97.5554 132.374 99.73 134.535 100.255Z" fill="url(#paint30_linear_1239_1312)"/>
<path d="M132.461 69.6813C134.622 70.2058 136.799 68.8817 137.322 66.7238C137.846 64.5659 136.519 62.3914 134.358 61.8668C132.197 61.3422 130.021 62.6663 129.497 64.8242C128.973 66.9821 130.3 69.1567 132.461 69.6813Z" fill="url(#paint31_linear_1239_1312)"/>
<path d="M132.752 65.5077C132.618 66.2651 132.266 67.1005 131.905 67.7884C131.361 68.8185 130.652 69.7934 129.868 70.6611C129.694 70.8475 129.194 71.4054 128.358 72.2735C126.011 70.9039 123.265 70.3194 120.554 70.6241C120.462 70.4323 120.373 70.2401 120.287 70.0475C120.084 69.5945 119.896 69.1391 119.719 68.6819C119.24 67.4111 118.896 65.6265 119.272 64.3702L117.557 64.6644C117.716 64.881 117.833 65.1048 117.937 65.3308C118.041 65.5567 118.126 65.7858 118.201 66.0171C118.348 66.4794 118.447 66.9502 118.507 67.4272C118.568 67.9045 118.591 68.3882 118.582 68.8772C118.568 69.367 118.543 69.8593 118.503 70.3534C118.485 70.5846 118.463 70.8166 118.439 71.0488C117.079 71.446 115.8 72.0708 114.654 72.8841C113.859 71.8296 112.854 70.3738 112.491 69.1033L111.387 69.7746C112.383 70.7082 113.229 72.3196 113.813 73.5364C112.87 74.333 112.069 75.2483 111.416 76.2463C109.376 75.2452 106.401 73.8275 104.903 72.0461L103.939 73.4921C106.176 74.1903 108.656 76.4085 110.462 77.9907C109.466 80.2146 109.124 82.7043 109.514 85.1424C107.322 85.9547 105.069 86.7528 102.703 86.6799C102.364 86.6688 102.021 86.6443 101.67 86.5734L102.146 89.0609C102.446 88.8659 102.756 88.7177 103.068 88.5826C105.281 87.6292 107.751 87.5523 110.134 87.5092C110.969 89.7655 112.471 91.8301 114.529 93.3332C113.886 94.8885 113.315 96.2083 112.33 97.4368C112.01 97.832 111.567 98.3094 111.151 98.5962L112.21 99.3369C112.276 99.0803 112.395 98.7937 112.509 98.554C113.303 96.869 114.683 95.5703 116.08 94.3022C117.87 95.2466 119.866 95.7499 121.887 95.7686C122.348 96.9533 123.328 99.339 122.868 101.109L124.585 100.83C124.1 100.086 123.861 98.9499 123.792 98.0478C123.74 97.4317 123.779 96.1955 123.802 95.64C126.307 95.279 128.576 94.1749 130.358 92.6026C131.343 93.2764 132.256 94.0422 133.041 94.9541C133.774 95.8062 134.553 97.0218 134.782 98.014L136.656 96.3104C135.686 95.9888 134.548 95.0981 133.77 94.2919C132.909 93.3994 132.214 92.3826 131.626 91.3082C133.28 89.3565 134.28 86.9625 134.542 84.4717C135.767 84.205 138.354 83.6309 140.229 83.7218L140.108 81.9883C138.457 82.2984 136.046 82.1524 134.561 82.039C134.399 80.2169 133.836 78.4028 132.841 76.7276C133.696 76.2435 134.936 75.6793 135.915 75.5558L135.333 74.403C134.642 75.1243 133.42 75.7969 132.507 76.1971C131.76 75.069 130.86 74.0979 129.85 73.2947C130.382 72.2613 130.731 71.6364 130.871 71.3768C131.757 69.7802 133.234 67.855 134.815 66.9793L132.752 65.5077Z" fill="url(#paint32_linear_1239_1312)"/>
<path d="M38.4441 90.9752C40.4274 91.4567 42.425 90.2414 42.9058 88.2608C43.3865 86.2802 42.1685 84.2844 40.1851 83.8029C38.2018 83.3215 36.2042 84.5367 35.7235 86.5173C35.2427 88.4979 36.4607 90.4938 38.4441 90.9752Z" fill="#FF89C4"/>
<path d="M29.1723 139.455C31.1557 139.936 33.1532 138.721 33.634 136.74C34.1148 134.76 32.8968 132.764 30.9134 132.283C28.9301 131.801 26.9325 133.016 26.4517 134.997C25.9709 136.978 27.189 138.973 29.1723 139.455Z" fill="#FF89C4"/>
<path d="M64.2858 137.898C66.2692 138.379 68.2668 137.164 68.7475 135.183C69.2283 133.203 68.0103 131.207 66.0269 130.725C64.0436 130.244 62.046 131.459 61.5652 133.44C61.0845 135.42 62.3025 137.416 64.2858 137.898Z" fill="#FF89C4"/>
<path d="M60.9629 97.9596C63.3406 98.5369 65.7355 97.0799 66.3119 94.7054C66.8883 92.3309 65.428 89.9381 63.0502 89.3609C60.6724 88.7837 58.2776 90.2407 57.7012 92.6152C57.1248 94.9896 58.5851 97.3824 60.9629 97.9596Z" fill="#FF89C4"/>
<path d="M49.5879 94.4673C50.9465 94.7971 52.3149 93.9646 52.6443 92.6078C52.9736 91.2511 52.1392 89.8838 50.7806 89.554C49.422 89.2242 48.0536 90.0567 47.7242 91.4135C47.3949 92.7702 48.2293 94.1375 49.5879 94.4673Z" fill="#FF89C4"/>
<path d="M67.7471 123.671C69.1057 124 70.4741 123.168 70.8035 121.811C71.1328 120.454 70.2984 119.087 68.9398 118.757C67.5811 118.428 66.2127 119.26 65.8834 120.617C65.554 121.974 66.3884 123.341 67.7471 123.671Z" fill="#FF89C4"/>
<path d="M19.7551 123.728C21.1139 124.057 22.4825 123.225 22.8119 121.868C23.1413 120.511 22.3068 119.143 20.948 118.814C19.5891 118.484 18.2205 119.316 17.8911 120.673C17.5617 122.03 18.3962 123.398 19.7551 123.728Z" fill="#FF89C4"/>
<path d="M20.395 105.889C23.4522 106.631 26.5313 104.758 27.2724 101.705C28.0135 98.6517 26.136 95.5752 23.0788 94.833C20.0216 94.0909 16.9424 95.9642 16.2013 99.0171C15.4602 102.07 17.3378 105.147 20.395 105.889Z" fill="#FF89C4"/>
<path d="M45.4599 147.961C48.5171 148.703 51.5963 146.83 52.3374 143.777C53.0785 140.724 51.2009 137.648 48.1437 136.906C45.0865 136.163 42.0074 138.037 41.2663 141.09C40.5252 144.143 42.4027 147.219 45.4599 147.961Z" fill="#FF89C4"/>
<path d="M74.0066 115.326C77.0637 116.068 80.1429 114.195 80.884 111.142C81.6251 108.089 79.7475 105.013 76.6903 104.271C73.6331 103.528 70.554 105.402 69.8129 108.455C69.0718 111.508 70.9494 114.584 74.0066 115.326Z" fill="#FF89C4"/>
<path d="M75.0116 108.646C74.1183 109.269 72.9295 109.753 71.8799 110.08C70.3035 110.566 68.6172 110.832 66.9627 110.916C66.6028 110.929 65.5436 110.988 63.8367 111.02C62.8588 107.306 60.6961 103.978 57.6765 101.574C57.7769 101.291 57.8807 101.01 57.9872 100.731C58.2377 100.076 58.5048 99.4323 58.7854 98.7986C59.5789 97.0498 61.0227 94.9222 62.6568 94.0414L60.6461 92.6225C60.5876 92.9973 60.4804 93.3379 60.3584 93.6677C60.2359 93.9974 60.0926 94.3121 59.9357 94.6176C59.6199 95.227 59.2463 95.7955 58.8295 96.3332C58.4115 96.8708 57.9501 97.3772 57.4511 97.8571C56.9467 98.3332 56.4287 98.7998 55.8942 99.2549C55.6442 99.4674 55.3904 99.6779 55.1329 99.8854C53.3739 98.9238 51.4682 98.271 49.5068 97.9392C49.7667 96.0905 50.2185 93.6308 51.1281 91.998L49.3512 91.5666C49.4128 93.4938 48.6453 95.9507 48.0112 97.7505C46.2702 97.6051 44.5507 97.7187 42.8977 98.064C41.8583 95.0252 40.3013 90.6363 40.5857 87.359L38.1728 87.8416C39.712 90.7739 39.9726 95.4698 40.196 98.8557C36.9714 100.084 34.1357 102.231 32.0839 105.058C29.0761 103.68 26.022 102.227 23.7269 99.7905C23.3978 99.4398 23.0793 99.0734 22.7989 98.6515L20.7839 101.613C21.2798 101.719 21.7381 101.879 22.1857 102.057C25.3557 103.314 27.9057 105.706 30.3342 108.044C28.9099 111.134 28.3452 114.698 28.8991 118.257C26.6989 119.17 24.8053 119.919 22.5883 120.162C21.8719 120.238 20.9511 120.273 20.2469 120.143L20.5646 121.942C20.8887 121.752 21.2945 121.584 21.648 121.457C24.1308 120.566 26.8134 120.647 29.4817 120.775C30.3273 123.508 31.8205 126.005 33.8257 128.044C33.1009 129.688 31.6913 133.052 29.4585 134.363L31.4572 135.799C31.7161 134.571 32.6155 133.197 33.4489 132.225C34.0144 131.558 35.2916 130.361 35.8714 129.829C38.7402 131.97 42.1166 133.133 45.4754 133.342C45.7867 135 45.9339 136.678 45.8064 138.374C45.6861 139.958 45.2483 141.952 44.4838 143.172L48.0663 143.342C47.4172 142.05 47.1704 140.023 47.1985 138.44C47.2314 136.688 47.5534 134.976 48.0417 133.316C51.652 133.017 55.0505 131.623 57.8076 129.394C59.3015 130.352 62.4654 132.362 64.2512 134.326L65.8665 132.472C63.9036 131.133 61.6362 128.578 60.2641 126.982C61.9267 124.998 63.1802 122.622 63.8615 119.953C65.2018 120.323 67.0083 120.998 68.1118 121.853L68.6836 120.118C67.27 120.15 65.3731 119.601 64.0593 119.089C64.441 117.215 64.5126 115.344 64.3065 113.533C65.8736 113.031 66.8492 112.755 67.2488 112.636C69.7354 111.925 73.1416 111.476 75.601 112.18L75.0116 108.646Z" fill="url(#paint33_linear_1239_1312)"/>
<path d="M123.79 23.9634C124.524 24.1416 125.264 23.6917 125.442 22.9584C125.62 22.2251 125.169 21.4862 124.435 21.3079C123.7 21.1297 122.961 21.5796 122.783 22.3129C122.605 23.0462 123.056 23.7851 123.79 23.9634Z" fill="#FF89C4"/>
<path d="M120.357 41.9121C121.091 42.0904 121.831 41.6405 122.009 40.9072C122.187 40.1739 121.736 39.435 121.002 39.2567C120.267 39.0785 119.528 39.5284 119.35 40.2617C119.172 40.995 119.623 41.7339 120.357 41.9121Z" fill="#FF89C4"/>
<path d="M133.357 41.3356C134.091 41.5139 134.831 41.0639 135.009 40.3306C135.187 39.5974 134.736 38.8584 134.002 38.6802C133.267 38.5019 132.528 38.9519 132.35 39.6851C132.172 40.4184 132.623 41.1574 133.357 41.3356Z" fill="#FF89C4"/>
<path d="M132.127 26.5492C133.008 26.7629 133.894 26.2235 134.108 25.3444C134.321 24.4653 133.78 23.5794 132.9 23.3657C132.02 23.152 131.133 23.6914 130.92 24.5705C130.706 25.4496 131.247 26.3355 132.127 26.5492Z" fill="#FF89C4"/>
<path d="M127.916 25.2563C128.419 25.3784 128.926 25.0702 129.048 24.5678C129.17 24.0655 128.861 23.5593 128.358 23.4372C127.855 23.3151 127.348 23.6233 127.226 24.1256C127.104 24.628 127.413 25.1342 127.916 25.2563Z" fill="#FF89C4"/>
<path d="M134.639 36.0683C135.142 36.1904 135.649 35.8822 135.771 35.3799C135.893 34.8775 135.584 34.3713 135.081 34.2492C134.578 34.1271 134.071 34.4353 133.949 34.9377C133.827 35.44 134.136 35.9462 134.639 36.0683Z" fill="#FF89C4"/>
<path d="M116.871 36.0894C117.374 36.2115 117.88 35.9033 118.002 35.4009C118.124 34.8985 117.815 34.3922 117.312 34.2701C116.809 34.148 116.303 34.4562 116.181 34.9586C116.059 35.461 116.368 35.9673 116.871 36.0894Z" fill="#FF89C4"/>
<path d="M117.108 29.4849C118.239 29.7596 119.379 29.0661 119.654 27.9358C119.928 26.8055 119.233 25.6664 118.101 25.3917C116.969 25.1169 115.829 25.8105 115.555 26.9408C115.281 28.0711 115.976 29.2101 117.108 29.4849Z" fill="#FF89C4"/>
<path d="M126.387 45.0615C127.519 45.3362 128.659 44.6427 128.933 43.5124C129.208 42.3821 128.512 41.243 127.38 40.9683C126.249 40.6935 125.109 41.3871 124.834 42.5174C124.56 43.6477 125.255 44.7867 126.387 45.0615Z" fill="#FF89C4"/>
<path d="M136.956 32.9789C138.088 33.2537 139.228 32.5602 139.502 31.4298C139.777 30.2995 139.082 29.1605 137.95 28.8857C136.818 28.611 135.678 29.3045 135.404 30.4348C135.129 31.5651 135.824 32.7042 136.956 32.9789Z" fill="#FF89C4"/>
<path d="M137.329 30.5057C136.998 30.7364 136.558 30.9154 136.169 31.0366C135.586 31.2167 134.961 31.315 134.349 31.3461C134.216 31.3509 133.823 31.3727 133.191 31.3847C132.829 30.0094 132.029 28.7774 130.911 27.8874C130.948 27.7825 130.986 27.6785 131.026 27.5754C131.118 27.3328 131.217 27.0945 131.321 26.8598C131.615 26.2124 132.15 25.4247 132.755 25.0985L132.01 24.5732C131.988 24.712 131.949 24.8381 131.904 24.9602C131.858 25.0823 131.805 25.1988 131.747 25.3119C131.63 25.5375 131.492 25.748 131.338 25.9471C131.183 26.1461 131.012 26.3336 130.827 26.5112C130.64 26.6875 130.449 26.8603 130.251 27.0288C130.158 27.1075 130.064 27.1854 129.969 27.2622C129.318 26.9062 128.612 26.6645 127.886 26.5417C127.982 25.8572 128.15 24.9466 128.486 24.342L127.828 24.1823C127.851 24.8958 127.567 25.8055 127.332 26.4718C126.688 26.418 126.051 26.46 125.439 26.5879C125.054 25.4628 124.478 23.8379 124.583 22.6245L123.69 22.8032C124.26 23.8888 124.356 25.6274 124.439 26.881C123.245 27.3356 122.195 28.1306 121.435 29.1771C120.322 28.667 119.191 28.129 118.341 27.2271C118.22 27.0972 118.102 26.9616 117.998 26.8054L117.252 27.902C117.435 27.941 117.605 28.0005 117.771 28.066C118.944 28.5317 119.889 29.417 120.788 30.2828C120.26 31.4266 120.051 32.7463 120.256 34.064C119.442 34.402 118.741 34.6794 117.92 34.7694C117.655 34.7974 117.314 34.8103 117.053 34.7623L117.171 35.4282C117.291 35.358 117.441 35.2958 117.572 35.2488C118.491 34.9188 119.484 34.949 120.472 34.9963C120.785 36.008 121.338 36.9325 122.08 37.6873C121.812 38.2963 121.29 39.5416 120.463 40.027L121.203 40.5586C121.299 40.1039 121.632 39.5952 121.941 39.2355C122.15 38.9884 122.623 38.5453 122.838 38.3482C123.9 39.141 125.15 39.5715 126.393 39.6489C126.509 40.2629 126.563 40.884 126.516 41.512C126.471 42.0983 126.309 42.8366 126.026 43.2883L127.353 43.3512C127.112 42.8731 127.021 42.1226 127.031 41.5364C127.044 40.8877 127.163 40.2541 127.344 39.6392C128.68 39.5287 129.938 39.0123 130.959 38.1874C131.512 38.5419 132.684 39.2861 133.345 40.0133L133.943 39.327C133.216 38.8313 132.377 37.8853 131.869 37.2942C132.484 36.5599 132.948 35.6802 133.201 34.6917C133.697 34.8289 134.366 35.0788 134.774 35.3952L134.986 34.7531C134.463 34.7647 133.76 34.5616 133.274 34.3721C133.415 33.6781 133.442 32.9856 133.365 32.3149C133.946 32.1292 134.307 32.0271 134.455 31.9828C135.375 31.7196 136.636 31.5533 137.547 31.814L137.329 30.5057Z" fill="url(#paint34_linear_1239_1312)"/>
<defs>
<linearGradient id="paint0_linear_1239_1312" x1="109.536" y1="78.9703" x2="79.1781" y2="252.246" gradientUnits="userSpaceOnUse">
<stop stop-color="#53CD9F"/>
<stop offset="1" stop-color="#0D7A5C"/>
</linearGradient>
<linearGradient id="paint1_linear_1239_1312" x1="109.315" y1="78.9319" x2="78.9575" y2="252.208" gradientUnits="userSpaceOnUse">
<stop stop-color="#53CD9F"/>
<stop offset="1" stop-color="#0D7A5C"/>
</linearGradient>
<linearGradient id="paint2_linear_1239_1312" x1="119.088" y1="80.6439" x2="88.7302" y2="253.92" gradientUnits="userSpaceOnUse">
<stop stop-color="#53CD9F"/>
<stop offset="1" stop-color="#0D7A5C"/>
</linearGradient>
<linearGradient id="paint3_linear_1239_1312" x1="116.209" y1="80.1394" x2="85.851" y2="253.415" gradientUnits="userSpaceOnUse">
<stop stop-color="#53CD9F"/>
<stop offset="1" stop-color="#0D7A5C"/>
</linearGradient>
<linearGradient id="paint4_linear_1239_1312" x1="112.812" y1="79.5444" x2="82.4536" y2="252.82" gradientUnits="userSpaceOnUse">
<stop stop-color="#53CD9F"/>
<stop offset="1" stop-color="#0D7A5C"/>
</linearGradient>
<linearGradient id="paint5_linear_1239_1312" x1="119.338" y1="80.6877" x2="88.9808" y2="253.964" gradientUnits="userSpaceOnUse">
<stop stop-color="#53CD9F"/>
<stop offset="1" stop-color="#0D7A5C"/>
</linearGradient>
<linearGradient id="paint6_linear_1239_1312" x1="105.88" y1="78.33" x2="75.5224" y2="251.606" gradientUnits="userSpaceOnUse">
<stop stop-color="#53CD9F"/>
<stop offset="1" stop-color="#0D7A5C"/>
</linearGradient>
<linearGradient id="paint7_linear_1239_1312" x1="105.242" y1="78.2181" x2="74.884" y2="251.494" gradientUnits="userSpaceOnUse">
<stop stop-color="#53CD9F"/>
<stop offset="1" stop-color="#0D7A5C"/>
</linearGradient>
<linearGradient id="paint8_linear_1239_1312" x1="114.338" y1="79.8118" x2="83.9801" y2="253.088" gradientUnits="userSpaceOnUse">
<stop stop-color="#53CD9F"/>
<stop offset="1" stop-color="#0D7A5C"/>
</linearGradient>
<linearGradient id="paint9_linear_1239_1312" x1="120.743" y1="80.934" x2="90.3852" y2="254.21" gradientUnits="userSpaceOnUse">
<stop stop-color="#53CD9F"/>
<stop offset="1" stop-color="#0D7A5C"/>
</linearGradient>
<linearGradient id="paint10_linear_1239_1312" x1="112.979" y1="79.5737" x2="82.6217" y2="252.85" gradientUnits="userSpaceOnUse">
<stop stop-color="#53CD9F"/>
<stop offset="1" stop-color="#0D7A5C"/>
</linearGradient>
<linearGradient id="paint11_linear_1239_1312" x1="45.3269" y1="66.3074" x2="14.9691" y2="239.584" gradientUnits="userSpaceOnUse">
<stop stop-color="#53CD9F"/>
<stop offset="1" stop-color="#0D7A5C"/>
</linearGradient>
<linearGradient id="paint12_linear_1239_1312" x1="44.9707" y1="66.2446" x2="14.6128" y2="239.521" gradientUnits="userSpaceOnUse">
<stop stop-color="#53CD9F"/>
<stop offset="1" stop-color="#0D7A5C"/>
</linearGradient>
<linearGradient id="paint13_linear_1239_1312" x1="60.7421" y1="69.0081" x2="30.3842" y2="242.284" gradientUnits="userSpaceOnUse">
<stop stop-color="#53CD9F"/>
<stop offset="1" stop-color="#0D7A5C"/>
</linearGradient>
<linearGradient id="paint14_linear_1239_1312" x1="56.0957" y1="68.1937" x2="25.7378" y2="241.47" gradientUnits="userSpaceOnUse">
<stop stop-color="#53CD9F"/>
<stop offset="1" stop-color="#0D7A5C"/>
</linearGradient>
<linearGradient id="paint15_linear_1239_1312" x1="50.6141" y1="67.2326" x2="20.2561" y2="240.511" gradientUnits="userSpaceOnUse">
<stop stop-color="#53CD9F"/>
<stop offset="1" stop-color="#0D7A5C"/>
</linearGradient>
<linearGradient id="paint16_linear_1239_1312" x1="61.1478" y1="69.0788" x2="30.7899" y2="242.355" gradientUnits="userSpaceOnUse">
<stop stop-color="#53CD9F"/>
<stop offset="1" stop-color="#0D7A5C"/>
</linearGradient>
<linearGradient id="paint17_linear_1239_1312" x1="39.4272" y1="65.2729" x2="9.0693" y2="238.55" gradientUnits="userSpaceOnUse">
<stop stop-color="#53CD9F"/>
<stop offset="1" stop-color="#0D7A5C"/>
</linearGradient>
<linearGradient id="paint18_linear_1239_1312" x1="38.3978" y1="65.0935" x2="8.03999" y2="238.37" gradientUnits="userSpaceOnUse">
<stop stop-color="#53CD9F"/>
<stop offset="1" stop-color="#0D7A5C"/>
</linearGradient>
<linearGradient id="paint19_linear_1239_1312" x1="53.0773" y1="67.6655" x2="22.7194" y2="240.942" gradientUnits="userSpaceOnUse">
<stop stop-color="#53CD9F"/>
<stop offset="1" stop-color="#0D7A5C"/>
</linearGradient>
<linearGradient id="paint20_linear_1239_1312" x1="63.4135" y1="69.477" x2="33.0558" y2="242.752" gradientUnits="userSpaceOnUse">
<stop stop-color="#53CD9F"/>
<stop offset="1" stop-color="#0D7A5C"/>
</linearGradient>
<linearGradient id="paint21_linear_1239_1312" x1="50.8846" y1="67.2811" x2="20.5269" y2="240.557" gradientUnits="userSpaceOnUse">
<stop stop-color="#53CD9F"/>
<stop offset="1" stop-color="#0D7A5C"/>
</linearGradient>
<linearGradient id="paint22_linear_1239_1312" x1="113.447" y1="38.8701" x2="101.556" y2="82.1788" gradientUnits="userSpaceOnUse">
<stop stop-color="#C9CD55"/>
<stop offset="0.5065" stop-color="#659C52"/>
<stop offset="1" stop-color="#287F50"/>
</linearGradient>
<linearGradient id="paint23_linear_1239_1312" x1="139.075" y1="45.9064" x2="127.185" y2="89.2153" gradientUnits="userSpaceOnUse">
<stop stop-color="#C9CD55"/>
<stop offset="0.5065" stop-color="#659C52"/>
<stop offset="1" stop-color="#287F50"/>
</linearGradient>
<linearGradient id="paint24_linear_1239_1312" x1="149.984" y1="48.9014" x2="138.094" y2="92.2103" gradientUnits="userSpaceOnUse">
<stop stop-color="#C9CD55"/>
<stop offset="0.5065" stop-color="#659C52"/>
<stop offset="1" stop-color="#287F50"/>
</linearGradient>
<linearGradient id="paint25_linear_1239_1312" x1="124.814" y1="41.9909" x2="112.923" y2="85.2996" gradientUnits="userSpaceOnUse">
<stop stop-color="#C9CD55"/>
<stop offset="0.5065" stop-color="#659C52"/>
<stop offset="1" stop-color="#287F50"/>
</linearGradient>
<linearGradient id="paint26_linear_1239_1312" x1="119.851" y1="40.6284" x2="107.96" y2="83.9373" gradientUnits="userSpaceOnUse">
<stop stop-color="#C9CD55"/>
<stop offset="0.5065" stop-color="#659C52"/>
<stop offset="1" stop-color="#287F50"/>
</linearGradient>
<linearGradient id="paint27_linear_1239_1312" x1="143.291" y1="47.0637" x2="131.4" y2="90.3726" gradientUnits="userSpaceOnUse">
<stop stop-color="#C9CD55"/>
<stop offset="0.5065" stop-color="#659C52"/>
<stop offset="1" stop-color="#287F50"/>
</linearGradient>
<linearGradient id="paint28_linear_1239_1312" x1="127.151" y1="42.6325" x2="115.261" y2="85.9415" gradientUnits="userSpaceOnUse">
<stop stop-color="#C9CD55"/>
<stop offset="0.5065" stop-color="#659C52"/>
<stop offset="1" stop-color="#287F50"/>
</linearGradient>
<linearGradient id="paint29_linear_1239_1312" x1="115.216" y1="39.356" x2="103.326" y2="82.6648" gradientUnits="userSpaceOnUse">
<stop stop-color="#C9CD55"/>
<stop offset="0.5065" stop-color="#659C52"/>
<stop offset="1" stop-color="#287F50"/>
</linearGradient>
<linearGradient id="paint30_linear_1239_1312" x1="148.616" y1="48.5257" x2="136.726" y2="91.8346" gradientUnits="userSpaceOnUse">
<stop stop-color="#C9CD55"/>
<stop offset="0.5065" stop-color="#659C52"/>
<stop offset="1" stop-color="#287F50"/>
</linearGradient>
<linearGradient id="paint31_linear_1239_1312" x1="138.881" y1="45.8528" x2="126.99" y2="89.1617" gradientUnits="userSpaceOnUse">
<stop stop-color="#C9CD55"/>
<stop offset="0.5065" stop-color="#659C52"/>
<stop offset="1" stop-color="#287F50"/>
</linearGradient>
<linearGradient id="paint32_linear_1239_1312" x1="131.626" y1="43.8613" x2="119.736" y2="87.17" gradientUnits="userSpaceOnUse">
<stop stop-color="#C9CD55"/>
<stop offset="0.5065" stop-color="#659C52"/>
<stop offset="1" stop-color="#287F50"/>
</linearGradient>
<linearGradient id="paint33_linear_1239_1312" x1="66.7878" y1="21.5294" x2="22.3579" y2="225.443" gradientUnits="userSpaceOnUse">
<stop stop-color="#FF1CF6"/>
<stop offset="0.53125" stop-color="#FF9EBA"/>
</linearGradient>
<linearGradient id="paint34_linear_1239_1312" x1="134.284" y1="-1.74778" x2="117.835" y2="73.7476" gradientUnits="userSpaceOnUse">
<stop stop-color="#FF1CF6"/>
<stop offset="0.53125" stop-color="#FF9EBA"/>
</linearGradient>
</defs>
</svg>
