<svg width="104" height="104" viewBox="0 0 104 104" fill="none" xmlns="http://www.w3.org/2000/svg">
<g clip-path="url(#clip0_1412_1055)">
<path d="M52.2159 103.627C80.6586 103.627 103.716 80.5696 103.716 52.127C103.716 23.6843 80.6586 0.626953 52.2159 0.626953C23.7733 0.626953 0.715942 23.6843 0.715942 52.127C0.715942 80.5696 23.7733 103.627 52.2159 103.627Z" fill="#6CFDD4"/>
<path d="M62.4511 62.3607H56.7937V59.7565C55.239 61.7063 53.3176 62.6812 51.0295 62.6812C48.7415 62.6812 46.8214 62.0187 45.2692 60.6937C43.717 59.3695 42.9409 57.6032 42.9409 55.3949C42.9409 53.1865 43.7437 51.5334 45.3493 50.4356C46.9549 49.3395 49.1493 48.791 51.9324 48.7902H56.4288V48.6694C56.4288 46.3694 55.211 45.2186 52.7754 45.2169C51.6459 45.234 50.5276 45.4448 49.4693 45.84C48.4114 46.1982 47.416 46.7195 46.5192 47.385L43.8234 43.4926C46.6607 41.4309 49.8991 40.4005 53.5384 40.4014C56.1613 40.4014 58.3023 41.0571 59.9613 42.3685C61.6203 43.68 62.4502 45.754 62.4511 48.5905V62.3607ZM56.3893 54.1309V53.0869H52.6152C50.2068 53.0869 49.0026 53.8363 49.0026 55.3351C49.0026 56.1108 49.29 56.7042 49.8647 57.1154C50.4395 57.5265 51.2627 57.7338 52.3342 57.7372C53.3637 57.751 54.3654 57.4032 55.1648 56.7542C55.9812 56.1023 56.3893 55.2279 56.3893 54.1309Z" fill="white"/>
<path d="M20.0227 54.1794V49.3359L37.211 41.2383V46.4353L25.8568 51.6693L37.211 57.0443V62.2783L20.0227 54.1794Z" fill="white"/>
<path d="M86.6764 49.3359V54.1794L69.4843 62.2783V57.0443L80.836 51.6693L69.4843 46.4353V41.2383L86.6764 49.3359Z" fill="white"/>
</g>
<defs>
<clipPath id="clip0_1412_1055">
<rect width="103" height="103" fill="white" transform="translate(0.715942 0.626953)"/>
</clipPath>
</defs>
</svg>
